<?xml version="1.0" encoding="UTF-8"?>
<svg id="Layer_1" data-name="Layer 1" xmlns="http://www.w3.org/2000/svg" xmlns:xlink="http://www.w3.org/1999/xlink" viewBox="0 0 512 512">
  <defs>
    <style>
      .cls-1 {
        fill: url(#linear-gradient-2);
      }

      .cls-2 {
        fill: #112341;
      }

      .cls-3 {
        fill: url(#linear-gradient-4);
      }

      .cls-4 {
        fill: url(#linear-gradient-3);
      }

      .cls-5 {
        fill: url(#linear-gradient-5);
      }

      .cls-6 {
        fill: url(#linear-gradient-8);
      }

      .cls-7 {
        fill: url(#linear-gradient-7);
      }

      .cls-8 {
        fill: url(#linear-gradient-9);
      }

      .cls-9 {
        fill: url(#linear-gradient-6);
      }

      .cls-10 {
        fill: url(#linear-gradient);
      }
    </style>
    <linearGradient id="linear-gradient" x1="85.8" y1="255.89" x2="426.15" y2="255.89" gradientUnits="userSpaceOnUse">
      <stop offset="0" stop-color="#f7ffdf"/>
      <stop offset=".06" stop-color="#f4f6d0"/>
      <stop offset=".28" stop-color="#eddca5"/>
      <stop offset=".48" stop-color="#e7c782"/>
      <stop offset=".68" stop-color="#e3b96a"/>
      <stop offset=".85" stop-color="#e0b05b"/>
      <stop offset="1" stop-color="#e0ad56"/>
    </linearGradient>
    <linearGradient id="linear-gradient-2" x1="118.72" y1="224.26" x2="393.15" y2="224.26" xlink:href="#linear-gradient"/>
    <linearGradient id="linear-gradient-3" x1="118.78" y1="287.77" x2="393.17" y2="287.77" xlink:href="#linear-gradient"/>
    <linearGradient id="linear-gradient-4" x1="133.61" y1="319.5" x2="378.31" y2="319.5" xlink:href="#linear-gradient"/>
    <linearGradient id="linear-gradient-5" x1="133.7" y1="192.39" x2="378.31" y2="192.39" xlink:href="#linear-gradient"/>
    <linearGradient id="linear-gradient-6" x1="160.97" y1="351.66" x2="351.14" y2="351.66" xlink:href="#linear-gradient"/>
    <linearGradient id="linear-gradient-7" x1="161.06" y1="160.36" x2="350.7" y2="160.36" xlink:href="#linear-gradient"/>
    <linearGradient id="linear-gradient-8" x1="202.54" y1="384.19" x2="309.56" y2="384.19" xlink:href="#linear-gradient"/>
    <linearGradient id="linear-gradient-9" x1="202.62" y1="127.78" x2="309.19" y2="127.78" xlink:href="#linear-gradient"/>
  </defs>
  <path class="cls-2" d="M425.26,454.88c-15.3,9.72-31.64,15.6-49.77,15.59l-239.9-.12c-48.81-.03-94.55-45.17-94.51-95.71l.2-237.4c.04-50.18,43.02-95.71,93.86-95.69l242.25.07c49.97.02,92.69,44.74,92.83,94.14l.69,233.03c.1,34.85-15.79,67.14-45.66,86.1ZM270.7,134.7c10.47,6.23,22.5,7.62,33.65,3.57,4.39-1.6,5.65-6.41,4.34-10-4.28-11.78-14.62,2.61-30.02-6.79-13.61-8.3-30.69-8.86-44.31-.51-16.48,10.1-27.09-4.17-31.29,7.21-1.24,3.36.01,8.29,4.09,9.86,11.52,4.45,23.79,2.91,34.18-3.36,9.06-5.47,19.96-5.58,29.37.02ZM275.33,167.95c14.28,8.95,30.72,8.92,44.46.48,16.42-10.09,26.33-.87,30.2-9.64,1.15-2.61.96-6.42-.85-8.85s-5.51-2.54-8.78-2.59c-10.03-.18-18.59,1.71-27.02,7.08-9.09,5.79-20.64,6.7-29.95.28-16.73-11.53-37.58-11.59-54.48-.2-9.78,6.59-21.64,6.06-30.93-.4-8.17-5.68-16.96-6.61-26.63-6.81-5.63-.11-10.14,1.75-10.28,7.78-.11,4.59,4.13,8.35,9.38,8.13,8.46-.36,15.83,1.33,22.85,5.63,14.07,8.63,30.88,7.39,44.5-1.48,12.15-7.92,25.18-7.15,37.53.59ZM278.34,200.47c16.05,9.34,34.82,8.98,50.53-.82,5.01-3.13,11.09-4.53,16.94-4.51l24.23.06c4.94.01,8.16-3.39,8.28-7.85.1-3.89-2.71-7.91-7.4-7.9l-28.88.09c-7.22.02-14.7,3.14-20.87,6.7-12.08,6.96-25.44,7.27-37.34-.4-17.3-11.15-38.43-11.05-55.85.03-25.46,16.2-40.11-6.1-55.61-6.2l-31.71-.19c-4.41-.03-7.1,4.14-6.94,7.82.15,3.25,3.21,7.63,7.36,7.66l26.61.19c5.96.04,11.69,1.76,16.67,4.86,16.36,10.2,35.25,9.34,51.44-.71,16.05-9.97,27.68-7.49,42.55,1.17ZM277.47,230.74c16.89,10.96,36.91,11.83,54.46,2.64,4.45-2.33,9.75-4.31,14.89-4.33l38.07-.1c4.97-.01,8.29-3.44,8.26-8.11-.03-4.19-3.29-7.83-8.29-7.79l-41.65.3c-14.24.1-31.19,21.12-58.35,3.9-17.76-11.26-39.5-11.32-57.43-.13-27.67,17.27-45.17-3.64-57.3-3.72l-43.26-.27c-4.77-.03-8.16,3.71-8.14,7.7s3.28,8.06,8.07,8.06h35.3c6.38.02,12.42,1.27,17.96,4.29,17.37,9.47,37.36,8.57,53.89-2.18,13.24-8.62,29.79-9.18,43.52-.27ZM419.17,263.62c5.08,0,7.27-5.25,6.95-8.09-.47-4.2-3.24-7.4-8.02-7.4H94.45c-5.44,0-8.71,3.01-8.65,7.94.04,3.79,3.01,7.58,7.94,7.58l325.43-.03ZM327.05,293.36c6.54,3.55,13.76,5.49,20.84,5.49l37.51.03c4.59,0,7.51-3.85,7.76-7.62.22-3.3-2.14-7.88-6.44-7.92l-40.72-.35c-5.62-.05-11.48-2.9-16.44-5.33-17.34-8.49-36.06-6.89-52,3.39-13.83,8.93-29.73,8.69-43.41-.1-16.16-10.38-34.55-11.65-51.85-3.22-5.02,2.45-10.87,5.23-16.54,5.27l-40.85.29c-4.32.03-6.63,5.51-6.06,8.51.59,3.15,3.74,6.98,7.63,6.98l40.04-.03c6.8,0,13.72-2.82,19.55-5.94,13.73-7.33,28.67-6.28,41.67,2.08,17.29,11.12,39.07,11.31,56.45.17,13.41-8.59,28.34-9.58,42.85-1.72ZM320.51,325.43c7.7,4.8,16.16,7.35,25.33,7.32l25.08-.08c4.97-.02,7.75-4.53,7.34-8.76-.39-4.1-3.91-6.78-8.49-6.82l-27.77-.26c-15.11-.14-30.68-25.39-67.31-3.32-11.46,6.9-25.01,7.24-36.54.38-38.15-22.73-53.18,2.64-66.7,2.81l-29.77.37c-4.72.06-8.13,3.59-8.08,7.67s3.21,8.01,7.97,7.97l29.81-.24c7.12-.06,14.31-3.55,20.29-7.13,22.13-13.28,35.79,2.17,48.17,6.52,10.58,3.71,22.78,3.67,33.22-.45,13.5-5.32,26.72-18.88,47.44-5.97ZM311.79,356.97c9.33,6.04,18.76,7.96,29.46,8.01,5.34.02,9.96-2.44,9.89-7.86-.07-5.03-4.48-8.54-9.93-8.2-7.99.5-14.79-1.15-21.38-5.28-14.16-8.86-31.22-8.38-44.86.78-11.58,7.78-26.01,7.56-37.65.06-13.95-8.99-30.71-9.73-44.95-.89-6.7,4.16-13.94,6.23-21.97,5.45-5.35-.52-9.51,3.12-9.43,8.04s4.2,7.97,9.39,7.93c11-.08,20.99-1.96,30.13-8.07s19.76-5.38,28.62.64c16.82,11.43,37.53,11.27,54.27-.24,8.59-5.91,19.53-6.13,28.41-.38ZM309.08,384.3c1.4-3.6-.35-7.95-4.43-9.86-10.23-4.79-21.73-3.11-31.49,2.29-10.85,6.02-22.83,5.84-33.77.01-10.08-5.37-21.21-7.3-31.9-2.44-3.89,1.77-5.86,5.52-4.56,9.73.96,3.12,4.81,6.33,8.84,4.8,7.02-2.66,14.08-2.31,20.53,1.5,15.18,8.95,33.17,8.6,48.24-.29,14.2-8.37,24.05,5.8,28.53-5.74Z"/>
  <path class="cls-10" d="M419.17,263.62l-325.43.03c-4.92,0-7.89-3.79-7.94-7.58-.06-4.92,3.21-7.93,8.65-7.93h323.64c4.78,0,7.54,3.2,8.02,7.39.32,2.85-1.87,8.09-6.95,8.09Z"/>
  <path class="cls-1" d="M277.47,230.74c-13.73-8.91-30.28-8.34-43.52.27-16.53,10.76-36.52,11.65-53.89,2.18-5.54-3.02-11.59-4.27-17.96-4.28h-35.3c-4.8-.02-8.05-4.02-8.07-8.07s3.37-7.73,8.14-7.7l43.26.27c12.13.07,29.63,20.99,57.3,3.72,17.94-11.19,39.67-11.13,57.43.13,27.17,17.22,44.11-3.8,58.35-3.9l41.65-.3c4.99-.04,8.25,3.6,8.29,7.79.03,4.66-3.29,8.09-8.26,8.11l-38.07.1c-5.13.01-10.44,2-14.89,4.33-17.55,9.19-37.57,8.32-54.46-2.64Z"/>
  <path class="cls-4" d="M327.05,293.36c-14.51-7.86-29.44-6.88-42.85,1.72-17.38,11.14-39.16,10.95-56.45-.17-13-8.36-27.94-9.41-41.67-2.08-5.83,3.11-12.75,5.93-19.55,5.94l-40.04.03c-3.89,0-7.04-3.83-7.63-6.98s1.74-8.48,6.06-8.51l40.85-.29c5.68-.04,11.52-2.83,16.54-5.27,17.29-8.43,35.69-7.16,51.85,3.22,13.68,8.79,29.58,9.02,43.41.1,15.94-10.28,34.66-11.88,52-3.39,4.96,2.43,10.81,5.28,16.44,5.33l40.72.35c4.3.04,6.66,4.61,6.44,7.92-.25,3.77-3.18,7.62-7.76,7.62l-37.51-.03c-7.09,0-14.3-1.95-20.84-5.49Z"/>
  <path class="cls-3" d="M320.51,325.43c-20.72-12.91-33.94.65-47.44,5.97-10.45,4.12-22.65,4.16-33.22.45-12.37-4.34-26.03-19.8-48.17-6.52-5.97,3.58-13.17,7.08-20.29,7.13l-29.81.24c-4.76.04-7.93-3.77-7.97-7.97s3.37-7.61,8.08-7.67l29.77-.37c13.53-.17,28.55-25.54,66.7-2.81,11.52,6.87,25.08,6.52,36.54-.38,36.64-22.07,52.2,3.18,67.31,3.32l27.77.26c4.57.04,8.1,2.72,8.49,6.82.4,4.23-2.38,8.75-7.34,8.76l-25.08.08c-9.17.03-17.63-2.52-25.33-7.32Z"/>
  <path class="cls-5" d="M278.34,200.47c-14.87-8.66-26.49-11.13-42.55-1.17-16.19,10.05-35.07,10.91-51.44.71-4.98-3.1-10.71-4.82-16.67-4.86l-26.61-.19c-4.15-.03-7.21-4.41-7.36-7.66-.17-3.68,2.53-7.85,6.94-7.82l31.71.19c15.5.09,30.15,22.39,55.61,6.2,17.42-11.08,38.54-11.18,55.85-.03,11.9,7.67,25.26,7.36,37.34.4,6.18-3.56,13.65-6.68,20.87-6.7l28.88-.09c4.68-.02,7.49,4.01,7.4,7.9-.11,4.46-3.33,7.87-8.28,7.85l-24.23-.06c-5.85-.02-11.94,1.39-16.94,4.51-15.71,9.8-34.47,10.17-50.53.82Z"/>
  <path class="cls-9" d="M311.79,356.97c-8.88-5.75-19.82-5.52-28.41.38-16.74,11.5-37.44,11.66-54.27.24-8.87-6.02-19.77-6.56-28.62-.64s-19.13,7.99-30.13,8.07c-5.18.04-9.3-2.88-9.39-7.93s4.08-8.57,9.43-8.04c8.03.78,15.27-1.29,21.97-5.45,14.24-8.84,31-8.1,44.95.89,11.64,7.5,26.07,7.72,37.65-.06,13.64-9.16,30.71-9.64,44.86-.78,6.59,4.13,13.39,5.78,21.38,5.28,5.45-.34,9.86,3.17,9.93,8.2.07,5.42-4.55,7.89-9.89,7.86-10.71-.05-20.13-1.97-29.46-8.01Z"/>
  <path class="cls-7" d="M275.33,167.95c-12.36-7.75-25.38-8.51-37.53-.59-13.62,8.87-30.44,10.11-44.5,1.48-7.02-4.31-14.39-6-22.85-5.63-5.25.23-9.49-3.54-9.38-8.13.14-6.03,4.65-7.9,10.28-7.78,9.67.2,18.46,1.14,26.63,6.81,9.29,6.46,21.15,6.99,30.93.4,16.89-11.38,37.75-11.33,54.48.2,9.31,6.42,20.86,5.51,29.95-.28,8.44-5.37,16.99-7.26,27.02-7.08,3.27.06,6.96.14,8.78,2.59s2,6.23.85,8.85c-3.87,8.78-13.78-.44-30.2,9.64-13.73,8.43-30.18,8.47-44.46-.48Z"/>
  <path class="cls-6" d="M309.08,384.3c-4.48,11.54-14.34-2.64-28.53,5.74-15.07,8.89-33.07,9.24-48.24.29-6.45-3.81-13.5-4.16-20.53-1.5-4.04,1.53-7.88-1.68-8.84-4.8-1.29-4.2.67-7.96,4.56-9.73,10.68-4.85,21.81-2.92,31.9,2.44,10.94,5.83,22.91,6,33.77-.01,9.76-5.41,21.26-7.08,31.49-2.29,4.08,1.91,5.83,6.25,4.43,9.86Z"/>
  <path class="cls-8" d="M270.7,134.7c-9.41-5.6-20.3-5.49-29.37-.02-10.39,6.27-22.65,7.81-34.18,3.36-4.08-1.57-5.33-6.5-4.09-9.86,4.21-11.38,14.82,2.89,31.29-7.21,13.62-8.35,30.7-7.79,44.31.51,15.4,9.4,25.74-4.99,30.02,6.79,1.3,3.59.05,8.41-4.34,10-11.16,4.06-23.18,2.67-33.65-3.57Z"/>
</svg>